<mxfile host="app.diagrams.net" agent="Mozilla/5.0 (Windows NT 10.0; Win64; x64) AppleWebKit/537.36 (KHTML, like Gecko) Chrome/129.0.0.0 Safari/537.36" version="24.7.17">
  <diagram id="C5RBs43oDa-KdzZeNtuy" name="Page-1">
    <mxGraphModel dx="1702" dy="503" grid="1" gridSize="10" guides="1" tooltips="1" connect="1" arrows="1" fold="1" page="1" pageScale="1" pageWidth="827" pageHeight="1169" math="0" shadow="0">
      <root>
        <mxCell id="WIyWlLk6GJQsqaUBKTNV-0" />
        <mxCell id="WIyWlLk6GJQsqaUBKTNV-1" parent="WIyWlLk6GJQsqaUBKTNV-0" />
        <mxCell id="dz62KHRVr8aX28sih6py-0" value="Mulai" style="ellipse;whiteSpace=wrap;html=1;labelBackgroundColor=none;rounded=1;" parent="WIyWlLk6GJQsqaUBKTNV-1" vertex="1">
          <mxGeometry x="339" y="30" width="150" height="80" as="geometry" />
        </mxCell>
        <mxCell id="dz62KHRVr8aX28sih6py-4" value="&lt;b&gt;Output&lt;/b&gt;&lt;div&gt;&lt;br&gt;&lt;/div&gt;&lt;div&gt;&lt;div&gt;&lt;b&gt;Sistem Manajemen Siklus Menstruasi&lt;/b&gt;&lt;/div&gt;&lt;div&gt;1. Lihat Data Siklus&lt;/div&gt;&lt;div&gt;2. Tambah Data Siklus&lt;/div&gt;&lt;div&gt;3. Ganti Data Siklus&lt;/div&gt;&lt;div&gt;4. Hapus Data Siklus&lt;/div&gt;&lt;div&gt;5. Keluar&lt;/div&gt;&lt;/div&gt;" style="shape=parallelogram;perimeter=parallelogramPerimeter;whiteSpace=wrap;html=1;fixedSize=1;labelBackgroundColor=none;rounded=1;" parent="WIyWlLk6GJQsqaUBKTNV-1" vertex="1">
          <mxGeometry x="276" y="150" width="276" height="140" as="geometry" />
        </mxCell>
        <mxCell id="dz62KHRVr8aX28sih6py-16" value="" style="edgeStyle=orthogonalEdgeStyle;rounded=1;orthogonalLoop=1;jettySize=auto;html=1;labelBackgroundColor=none;fontColor=default;" parent="WIyWlLk6GJQsqaUBKTNV-1" source="dz62KHRVr8aX28sih6py-10" target="dz62KHRVr8aX28sih6py-15" edge="1">
          <mxGeometry relative="1" as="geometry" />
        </mxCell>
        <mxCell id="dz62KHRVr8aX28sih6py-10" value="&lt;b&gt;Input&lt;/b&gt;&lt;div&gt;&lt;br&gt;&lt;/div&gt;&lt;div&gt;Masukkan pilihan menu&lt;/div&gt;" style="shape=parallelogram;perimeter=parallelogramPerimeter;whiteSpace=wrap;html=1;fixedSize=1;labelBackgroundColor=none;rounded=1;" parent="WIyWlLk6GJQsqaUBKTNV-1" vertex="1">
          <mxGeometry x="328" y="330" width="171" height="70" as="geometry" />
        </mxCell>
        <mxCell id="dz62KHRVr8aX28sih6py-14" style="edgeStyle=orthogonalEdgeStyle;rounded=1;orthogonalLoop=1;jettySize=auto;html=1;exitX=0.5;exitY=1;exitDx=0;exitDy=0;entryX=0.5;entryY=0;entryDx=0;entryDy=0;labelBackgroundColor=none;fontColor=default;" parent="WIyWlLk6GJQsqaUBKTNV-1" source="dz62KHRVr8aX28sih6py-4" target="dz62KHRVr8aX28sih6py-10" edge="1">
          <mxGeometry relative="1" as="geometry">
            <mxPoint x="409" y="301" as="sourcePoint" />
            <mxPoint x="412" y="340" as="targetPoint" />
          </mxGeometry>
        </mxCell>
        <mxCell id="dz62KHRVr8aX28sih6py-37" value="" style="edgeStyle=orthogonalEdgeStyle;rounded=1;orthogonalLoop=1;jettySize=auto;html=1;labelBackgroundColor=none;fontColor=default;" parent="WIyWlLk6GJQsqaUBKTNV-1" source="dz62KHRVr8aX28sih6py-15" target="dz62KHRVr8aX28sih6py-36" edge="1">
          <mxGeometry relative="1" as="geometry" />
        </mxCell>
        <mxCell id="dz62KHRVr8aX28sih6py-15" value="&lt;b&gt;Pilihan 3&lt;/b&gt;" style="whiteSpace=wrap;html=1;labelBackgroundColor=none;rounded=1;" parent="WIyWlLk6GJQsqaUBKTNV-1" vertex="1">
          <mxGeometry x="353.5" y="440" width="120" height="50" as="geometry" />
        </mxCell>
        <mxCell id="dz62KHRVr8aX28sih6py-30" value="" style="edgeStyle=orthogonalEdgeStyle;rounded=1;orthogonalLoop=1;jettySize=auto;html=1;labelBackgroundColor=none;fontColor=default;" parent="WIyWlLk6GJQsqaUBKTNV-1" source="dz62KHRVr8aX28sih6py-17" target="dz62KHRVr8aX28sih6py-29" edge="1">
          <mxGeometry relative="1" as="geometry" />
        </mxCell>
        <mxCell id="dz62KHRVr8aX28sih6py-17" value="&lt;b&gt;Pilihan 2&lt;/b&gt;" style="whiteSpace=wrap;html=1;labelBackgroundColor=none;rounded=1;" parent="WIyWlLk6GJQsqaUBKTNV-1" vertex="1">
          <mxGeometry x="153.5" y="435" width="120" height="60" as="geometry" />
        </mxCell>
        <mxCell id="dz62KHRVr8aX28sih6py-26" value="" style="edgeStyle=orthogonalEdgeStyle;rounded=1;orthogonalLoop=1;jettySize=auto;html=1;labelBackgroundColor=none;fontColor=default;" parent="WIyWlLk6GJQsqaUBKTNV-1" source="dz62KHRVr8aX28sih6py-19" target="dz62KHRVr8aX28sih6py-25" edge="1">
          <mxGeometry relative="1" as="geometry" />
        </mxCell>
        <mxCell id="dz62KHRVr8aX28sih6py-19" value="&lt;b&gt;Pilihan 1&lt;/b&gt;" style="whiteSpace=wrap;html=1;labelBackgroundColor=none;rounded=1;" parent="WIyWlLk6GJQsqaUBKTNV-1" vertex="1">
          <mxGeometry x="-46.5" y="435" width="120" height="60" as="geometry" />
        </mxCell>
        <mxCell id="dz62KHRVr8aX28sih6py-45" value="" style="edgeStyle=orthogonalEdgeStyle;rounded=1;orthogonalLoop=1;jettySize=auto;html=1;labelBackgroundColor=none;fontColor=default;" parent="WIyWlLk6GJQsqaUBKTNV-1" source="dz62KHRVr8aX28sih6py-21" target="dz62KHRVr8aX28sih6py-44" edge="1">
          <mxGeometry relative="1" as="geometry" />
        </mxCell>
        <mxCell id="dz62KHRVr8aX28sih6py-21" value="&lt;b&gt;Pilihan 4&lt;/b&gt;" style="whiteSpace=wrap;html=1;labelBackgroundColor=none;rounded=1;" parent="WIyWlLk6GJQsqaUBKTNV-1" vertex="1">
          <mxGeometry x="553.5" y="435" width="120" height="60" as="geometry" />
        </mxCell>
        <mxCell id="1ERu-qNZTa1YbHrLSoEa-5" value="" style="edgeStyle=orthogonalEdgeStyle;rounded=1;orthogonalLoop=1;jettySize=auto;html=1;labelBackgroundColor=none;fontColor=default;" parent="WIyWlLk6GJQsqaUBKTNV-1" source="dz62KHRVr8aX28sih6py-23" target="1ERu-qNZTa1YbHrLSoEa-4" edge="1">
          <mxGeometry relative="1" as="geometry" />
        </mxCell>
        <mxCell id="dz62KHRVr8aX28sih6py-23" value="&lt;b&gt;Pilihan 5&lt;/b&gt;" style="whiteSpace=wrap;html=1;labelBackgroundColor=none;rounded=1;" parent="WIyWlLk6GJQsqaUBKTNV-1" vertex="1">
          <mxGeometry x="753.5" y="435" width="120" height="60" as="geometry" />
        </mxCell>
        <mxCell id="dz62KHRVr8aX28sih6py-28" value="" style="edgeStyle=orthogonalEdgeStyle;rounded=1;orthogonalLoop=1;jettySize=auto;html=1;labelBackgroundColor=none;fontColor=default;" parent="WIyWlLk6GJQsqaUBKTNV-1" source="dz62KHRVr8aX28sih6py-25" target="dz62KHRVr8aX28sih6py-27" edge="1">
          <mxGeometry relative="1" as="geometry" />
        </mxCell>
        <mxCell id="dz62KHRVr8aX28sih6py-25" value="&lt;b&gt;Output&lt;/b&gt;&lt;div&gt;&lt;br&gt;&lt;/div&gt;&lt;div&gt;Lihat Data Siklus&lt;/div&gt;" style="shape=parallelogram;perimeter=parallelogramPerimeter;whiteSpace=wrap;html=1;fixedSize=1;labelBackgroundColor=none;rounded=1;" parent="WIyWlLk6GJQsqaUBKTNV-1" vertex="1">
          <mxGeometry x="-56.37" y="545" width="139.75" height="85" as="geometry" />
        </mxCell>
        <mxCell id="1ERu-qNZTa1YbHrLSoEa-50" style="edgeStyle=orthogonalEdgeStyle;rounded=1;orthogonalLoop=1;jettySize=auto;html=1;exitX=0;exitY=0.5;exitDx=0;exitDy=0;entryX=0;entryY=0.5;entryDx=0;entryDy=0;labelBackgroundColor=none;fontColor=default;" parent="WIyWlLk6GJQsqaUBKTNV-1" source="dz62KHRVr8aX28sih6py-27" target="dz62KHRVr8aX28sih6py-4" edge="1">
          <mxGeometry relative="1" as="geometry">
            <mxPoint x="-200" y="220" as="targetPoint" />
            <Array as="points">
              <mxPoint x="-200" y="732" />
              <mxPoint x="-200" y="220" />
            </Array>
          </mxGeometry>
        </mxCell>
        <mxCell id="dz62KHRVr8aX28sih6py-27" value="&lt;b&gt;Input&lt;/b&gt;&lt;div&gt;&lt;br&gt;&lt;/div&gt;&lt;div&gt;Enter untuk kembali ke menu utama&lt;/div&gt;" style="shape=parallelogram;perimeter=parallelogramPerimeter;whiteSpace=wrap;html=1;fixedSize=1;labelBackgroundColor=none;rounded=1;" parent="WIyWlLk6GJQsqaUBKTNV-1" vertex="1">
          <mxGeometry x="-82.25" y="690" width="191.5" height="85" as="geometry" />
        </mxCell>
        <mxCell id="dz62KHRVr8aX28sih6py-32" value="" style="edgeStyle=orthogonalEdgeStyle;rounded=1;orthogonalLoop=1;jettySize=auto;html=1;labelBackgroundColor=none;fontColor=default;" parent="WIyWlLk6GJQsqaUBKTNV-1" source="dz62KHRVr8aX28sih6py-29" target="dz62KHRVr8aX28sih6py-31" edge="1">
          <mxGeometry relative="1" as="geometry" />
        </mxCell>
        <mxCell id="dz62KHRVr8aX28sih6py-29" value="&lt;b&gt;Input&amp;nbsp;&lt;/b&gt;&lt;div&gt;&lt;br&gt;&lt;/div&gt;&lt;div&gt;Tanggal, durasi siklus yang ingin ditambah&lt;/div&gt;" style="shape=parallelogram;perimeter=parallelogramPerimeter;whiteSpace=wrap;html=1;fixedSize=1;labelBackgroundColor=none;rounded=1;" parent="WIyWlLk6GJQsqaUBKTNV-1" vertex="1">
          <mxGeometry x="109.37" y="545" width="206.5" height="85" as="geometry" />
        </mxCell>
        <mxCell id="dz62KHRVr8aX28sih6py-34" value="" style="edgeStyle=orthogonalEdgeStyle;rounded=1;orthogonalLoop=1;jettySize=auto;html=1;labelBackgroundColor=none;fontColor=default;" parent="WIyWlLk6GJQsqaUBKTNV-1" source="dz62KHRVr8aX28sih6py-31" target="dz62KHRVr8aX28sih6py-33" edge="1">
          <mxGeometry relative="1" as="geometry" />
        </mxCell>
        <mxCell id="dz62KHRVr8aX28sih6py-31" value="&lt;b&gt;Output&lt;/b&gt;&amp;nbsp;&lt;div&gt;&lt;br&gt;&lt;/div&gt;&lt;div&gt;Data silkus berhasil ditambah&lt;/div&gt;" style="shape=parallelogram;perimeter=parallelogramPerimeter;whiteSpace=wrap;html=1;fixedSize=1;labelBackgroundColor=none;rounded=1;" parent="WIyWlLk6GJQsqaUBKTNV-1" vertex="1">
          <mxGeometry x="135.25" y="690" width="154.75" height="85" as="geometry" />
        </mxCell>
        <mxCell id="dz62KHRVr8aX28sih6py-33" value="&lt;b&gt;Input&lt;/b&gt;&lt;div&gt;&lt;br&gt;&lt;/div&gt;&lt;div&gt;Enter untuk kembali ke menu utama&lt;/div&gt;" style="shape=parallelogram;perimeter=parallelogramPerimeter;whiteSpace=wrap;html=1;fixedSize=1;labelBackgroundColor=none;rounded=1;" parent="WIyWlLk6GJQsqaUBKTNV-1" vertex="1">
          <mxGeometry x="135.25" y="820" width="154.75" height="80" as="geometry" />
        </mxCell>
        <mxCell id="dz62KHRVr8aX28sih6py-41" value="" style="edgeStyle=orthogonalEdgeStyle;rounded=1;orthogonalLoop=1;jettySize=auto;html=1;labelBackgroundColor=none;fontColor=default;" parent="WIyWlLk6GJQsqaUBKTNV-1" source="dz62KHRVr8aX28sih6py-36" target="dz62KHRVr8aX28sih6py-40" edge="1">
          <mxGeometry relative="1" as="geometry" />
        </mxCell>
        <mxCell id="dz62KHRVr8aX28sih6py-36" value="&lt;b&gt;Input&lt;/b&gt;&lt;div&gt;&lt;br&gt;&lt;/div&gt;&lt;div&gt;Tanggal, durasi yang ingin diganti&lt;br&gt;&lt;/div&gt;" style="shape=parallelogram;perimeter=parallelogramPerimeter;whiteSpace=wrap;html=1;fixedSize=1;labelBackgroundColor=none;rounded=1;" parent="WIyWlLk6GJQsqaUBKTNV-1" vertex="1">
          <mxGeometry x="325.5" y="544.5" width="176" height="85.5" as="geometry" />
        </mxCell>
        <mxCell id="dz62KHRVr8aX28sih6py-43" value="" style="edgeStyle=orthogonalEdgeStyle;rounded=1;orthogonalLoop=1;jettySize=auto;html=1;labelBackgroundColor=none;fontColor=default;" parent="WIyWlLk6GJQsqaUBKTNV-1" source="dz62KHRVr8aX28sih6py-40" target="dz62KHRVr8aX28sih6py-42" edge="1">
          <mxGeometry relative="1" as="geometry" />
        </mxCell>
        <mxCell id="dz62KHRVr8aX28sih6py-40" value="&lt;b&gt;Output&lt;/b&gt;&lt;div&gt;&lt;br&gt;&lt;/div&gt;&lt;div&gt;Data silkus berhasil diperbarui&lt;/div&gt;" style="shape=parallelogram;perimeter=parallelogramPerimeter;whiteSpace=wrap;html=1;fixedSize=1;labelBackgroundColor=none;rounded=1;" parent="WIyWlLk6GJQsqaUBKTNV-1" vertex="1">
          <mxGeometry x="346.63" y="690" width="134.75" height="85" as="geometry" />
        </mxCell>
        <mxCell id="dz62KHRVr8aX28sih6py-42" value="&lt;b&gt;Input&amp;nbsp;&lt;/b&gt;&lt;div&gt;&lt;br&gt;&lt;/div&gt;&lt;div&gt;Enter untuk kembali ke menu utama&lt;/div&gt;" style="shape=parallelogram;perimeter=parallelogramPerimeter;whiteSpace=wrap;html=1;fixedSize=1;labelBackgroundColor=none;rounded=1;" parent="WIyWlLk6GJQsqaUBKTNV-1" vertex="1">
          <mxGeometry x="336" y="820" width="154.75" height="80" as="geometry" />
        </mxCell>
        <mxCell id="1ERu-qNZTa1YbHrLSoEa-1" value="" style="edgeStyle=orthogonalEdgeStyle;rounded=1;orthogonalLoop=1;jettySize=auto;html=1;labelBackgroundColor=none;fontColor=default;" parent="WIyWlLk6GJQsqaUBKTNV-1" source="dz62KHRVr8aX28sih6py-44" target="1ERu-qNZTa1YbHrLSoEa-0" edge="1">
          <mxGeometry relative="1" as="geometry" />
        </mxCell>
        <mxCell id="dz62KHRVr8aX28sih6py-44" value="&lt;b&gt;Input&lt;/b&gt;&lt;div&gt;&lt;br&gt;&lt;/div&gt;&lt;div&gt;Tanggal, durasi silkus yang ingin dihapus&lt;/div&gt;" style="shape=parallelogram;perimeter=parallelogramPerimeter;whiteSpace=wrap;html=1;fixedSize=1;labelBackgroundColor=none;rounded=1;" parent="WIyWlLk6GJQsqaUBKTNV-1" vertex="1">
          <mxGeometry x="526.87" y="544.5" width="173.25" height="85.5" as="geometry" />
        </mxCell>
        <mxCell id="1ERu-qNZTa1YbHrLSoEa-3" value="" style="edgeStyle=orthogonalEdgeStyle;rounded=1;orthogonalLoop=1;jettySize=auto;html=1;labelBackgroundColor=none;fontColor=default;" parent="WIyWlLk6GJQsqaUBKTNV-1" source="1ERu-qNZTa1YbHrLSoEa-0" target="1ERu-qNZTa1YbHrLSoEa-2" edge="1">
          <mxGeometry relative="1" as="geometry" />
        </mxCell>
        <mxCell id="1ERu-qNZTa1YbHrLSoEa-0" value="&lt;b&gt;Output&lt;/b&gt;&lt;div&gt;&lt;br&gt;&lt;/div&gt;&lt;div&gt;Data siklus berhasil dihapus&lt;/div&gt;" style="shape=parallelogram;perimeter=parallelogramPerimeter;whiteSpace=wrap;html=1;fixedSize=1;labelBackgroundColor=none;rounded=1;" parent="WIyWlLk6GJQsqaUBKTNV-1" vertex="1">
          <mxGeometry x="538.63" y="690" width="149.75" height="85" as="geometry" />
        </mxCell>
        <mxCell id="1ERu-qNZTa1YbHrLSoEa-2" value="&lt;b&gt;Input&lt;/b&gt;&lt;div&gt;&lt;br&gt;&lt;/div&gt;&lt;div&gt;Enter untuk kembali ke menu utama&lt;br&gt;&lt;/div&gt;" style="shape=parallelogram;perimeter=parallelogramPerimeter;whiteSpace=wrap;html=1;fixedSize=1;labelBackgroundColor=none;rounded=1;" parent="WIyWlLk6GJQsqaUBKTNV-1" vertex="1">
          <mxGeometry x="538.62" y="820" width="149.75" height="80" as="geometry" />
        </mxCell>
        <mxCell id="1ERu-qNZTa1YbHrLSoEa-4" value="&lt;b&gt;Output&lt;/b&gt;&lt;div&gt;&lt;br&gt;&lt;/div&gt;&lt;div&gt;Keluar&lt;/div&gt;" style="shape=parallelogram;perimeter=parallelogramPerimeter;whiteSpace=wrap;html=1;fixedSize=1;labelBackgroundColor=none;rounded=1;" parent="WIyWlLk6GJQsqaUBKTNV-1" vertex="1">
          <mxGeometry x="742.81" y="545" width="141.38" height="85" as="geometry" />
        </mxCell>
        <mxCell id="1ERu-qNZTa1YbHrLSoEa-30" value="" style="endArrow=classic;html=1;rounded=1;exitX=0;exitY=0.5;exitDx=0;exitDy=0;entryX=0.5;entryY=0;entryDx=0;entryDy=0;labelBackgroundColor=none;fontColor=default;" parent="WIyWlLk6GJQsqaUBKTNV-1" source="dz62KHRVr8aX28sih6py-10" target="dz62KHRVr8aX28sih6py-19" edge="1">
          <mxGeometry width="50" height="50" relative="1" as="geometry">
            <mxPoint x="340" y="460" as="sourcePoint" />
            <mxPoint x="390" y="410" as="targetPoint" />
            <Array as="points">
              <mxPoint x="14" y="365" />
            </Array>
          </mxGeometry>
        </mxCell>
        <mxCell id="1ERu-qNZTa1YbHrLSoEa-33" value="" style="endArrow=classic;html=1;rounded=1;exitX=1;exitY=0.5;exitDx=0;exitDy=0;entryX=0.5;entryY=0;entryDx=0;entryDy=0;labelBackgroundColor=none;fontColor=default;" parent="WIyWlLk6GJQsqaUBKTNV-1" source="dz62KHRVr8aX28sih6py-10" target="dz62KHRVr8aX28sih6py-23" edge="1">
          <mxGeometry width="50" height="50" relative="1" as="geometry">
            <mxPoint x="580" y="430" as="sourcePoint" />
            <mxPoint x="630" y="380" as="targetPoint" />
            <Array as="points">
              <mxPoint x="814" y="365" />
            </Array>
          </mxGeometry>
        </mxCell>
        <mxCell id="1ERu-qNZTa1YbHrLSoEa-36" value="" style="endArrow=classic;html=1;rounded=1;exitX=1;exitY=0.5;exitDx=0;exitDy=0;entryX=0.5;entryY=0;entryDx=0;entryDy=0;labelBackgroundColor=none;fontColor=default;" parent="WIyWlLk6GJQsqaUBKTNV-1" source="dz62KHRVr8aX28sih6py-10" target="dz62KHRVr8aX28sih6py-21" edge="1">
          <mxGeometry width="50" height="50" relative="1" as="geometry">
            <mxPoint x="870" y="320" as="sourcePoint" />
            <mxPoint x="920" y="270" as="targetPoint" />
            <Array as="points">
              <mxPoint x="614" y="365" />
            </Array>
          </mxGeometry>
        </mxCell>
        <mxCell id="1ERu-qNZTa1YbHrLSoEa-37" value="" style="endArrow=classic;html=1;rounded=1;exitX=0;exitY=0.5;exitDx=0;exitDy=0;entryX=0.5;entryY=0;entryDx=0;entryDy=0;labelBackgroundColor=none;fontColor=default;" parent="WIyWlLk6GJQsqaUBKTNV-1" source="dz62KHRVr8aX28sih6py-10" target="dz62KHRVr8aX28sih6py-17" edge="1">
          <mxGeometry width="50" height="50" relative="1" as="geometry">
            <mxPoint x="500" y="370" as="sourcePoint" />
            <mxPoint x="550" y="320" as="targetPoint" />
            <Array as="points">
              <mxPoint x="214" y="365" />
            </Array>
          </mxGeometry>
        </mxCell>
        <mxCell id="1ERu-qNZTa1YbHrLSoEa-39" value="" style="endArrow=classic;html=1;rounded=1;exitX=0.5;exitY=1;exitDx=0;exitDy=0;entryX=0.5;entryY=0;entryDx=0;entryDy=0;labelBackgroundColor=none;fontColor=default;" parent="WIyWlLk6GJQsqaUBKTNV-1" source="dz62KHRVr8aX28sih6py-0" target="dz62KHRVr8aX28sih6py-4" edge="1">
          <mxGeometry width="50" height="50" relative="1" as="geometry">
            <mxPoint x="540" y="300" as="sourcePoint" />
            <mxPoint x="590" y="250" as="targetPoint" />
          </mxGeometry>
        </mxCell>
        <mxCell id="1ERu-qNZTa1YbHrLSoEa-40" value="" style="endArrow=classic;html=1;rounded=1;exitX=0.5;exitY=1;exitDx=0;exitDy=0;entryX=0;entryY=0.5;entryDx=0;entryDy=0;labelBackgroundColor=none;fontColor=default;" parent="WIyWlLk6GJQsqaUBKTNV-1" source="dz62KHRVr8aX28sih6py-42" target="dz62KHRVr8aX28sih6py-4" edge="1">
          <mxGeometry width="50" height="50" relative="1" as="geometry">
            <mxPoint x="410" y="530" as="sourcePoint" />
            <mxPoint x="460" y="480" as="targetPoint" />
            <Array as="points">
              <mxPoint x="413" y="960" />
              <mxPoint x="-200" y="960" />
              <mxPoint x="-200" y="220" />
            </Array>
          </mxGeometry>
        </mxCell>
        <mxCell id="1ERu-qNZTa1YbHrLSoEa-44" value="" style="edgeStyle=segmentEdgeStyle;endArrow=classic;html=1;curved=0;rounded=1;endSize=8;startSize=8;exitX=0.5;exitY=1;exitDx=0;exitDy=0;labelBackgroundColor=none;fontColor=default;" parent="WIyWlLk6GJQsqaUBKTNV-1" source="1ERu-qNZTa1YbHrLSoEa-2" edge="1">
          <mxGeometry width="50" height="50" relative="1" as="geometry">
            <mxPoint x="-340" y="775" as="sourcePoint" />
            <mxPoint x="-200" y="860" as="targetPoint" />
            <Array as="points">
              <mxPoint x="614" y="960" />
              <mxPoint x="-200" y="960" />
            </Array>
          </mxGeometry>
        </mxCell>
        <mxCell id="1ERu-qNZTa1YbHrLSoEa-47" value="" style="edgeStyle=segmentEdgeStyle;endArrow=classic;html=1;curved=0;rounded=1;endSize=8;startSize=8;exitX=0.5;exitY=1;exitDx=0;exitDy=0;labelBackgroundColor=none;fontColor=default;" parent="WIyWlLk6GJQsqaUBKTNV-1" source="1ERu-qNZTa1YbHrLSoEa-2" edge="1">
          <mxGeometry width="50" height="50" relative="1" as="geometry">
            <mxPoint x="470" y="920" as="sourcePoint" />
            <mxPoint x="410" y="960" as="targetPoint" />
            <Array as="points">
              <mxPoint x="614" y="960" />
            </Array>
          </mxGeometry>
        </mxCell>
        <mxCell id="1ERu-qNZTa1YbHrLSoEa-48" value="" style="edgeStyle=segmentEdgeStyle;endArrow=classic;html=1;curved=0;rounded=1;endSize=8;startSize=8;exitX=0;exitY=0.5;exitDx=0;exitDy=0;labelBackgroundColor=none;fontColor=default;" parent="WIyWlLk6GJQsqaUBKTNV-1" source="dz62KHRVr8aX28sih6py-33" edge="1">
          <mxGeometry width="50" height="50" relative="1" as="geometry">
            <mxPoint x="460" y="760" as="sourcePoint" />
            <mxPoint x="-200" y="730" as="targetPoint" />
          </mxGeometry>
        </mxCell>
      </root>
    </mxGraphModel>
  </diagram>
</mxfile>
